{"glyphs":{"0":{"ha":733,"x_min":0,"x_max":0,"o":"m 379 860 b 375 0 -85 860 -111 0 b 379 860 826 0 821 860 z m 371 78 b 383 778 215 78 214 778 b 371 78 546 778 529 78 z "},"1":{"ha":331,"x_min":0,"x_max":0,"o":"m 294 29 l 274 29 l 274 860 l 57 822 l 36 822 b 21 807 28 822 21 815 b 36 793 21 800 28 793 l 57 793 l 57 29 l 36 29 b 21 15 28 29 21 22 b 36 0 21 7 28 0 l 294 0 b 308 14 303 0 308 7 b 294 29 308 22 303 29 z "},"2":{"ha":688,"x_min":0,"x_max":0,"o":"m 482 349 b 424 129 283 349 274 129 b 506 242 424 129 413 242 b 422 78 593 242 594 78 b 311 78 399 78 357 78 b 364 114 331 89 347 101 b 294 222 317 135 294 179 b 482 375 294 324 392 375 b 554 365 508 375 532 372 b 301 860 647 600 568 860 b 151 358 -25 860 -49 358 b 268 440 254 358 268 440 b 307 778 197 510 196 778 b 21 78 482 778 356 78 l 21 0 b 501 0 33 0 382 0 b 482 349 706 0 743 349 z "},"3":{"ha":696,"x_min":0,"x_max":0,"o":"m 476 489 b 375 860 653 585 604 860 b 274 514 117 860 122 514 b 332 567 339 514 332 567 b 361 776 268 631 286 776 b 339 508 449 776 489 508 l 338 457 b 314 78 525 457 500 78 b 188 331 167 78 110 331 b 250 217 265 331 250 217 b 190 436 400 217 390 436 b 308 0 -50 436 -53 0 b 476 489 740 0 781 397 z "},"4":{"ha":665,"x_min":0,"x_max":0,"o":"m 629 29 l 608 29 l 608 860 l 392 860 l 392 328 l 150 328 b 354 651 240 396 349 506 b 178 860 360 781 264 860 b 118 600 -14 860 -14 600 b 176 653 149 600 176 617 b 207 744 144 685 165 744 b 251 674 235 744 254 719 b 22 369 244 519 22 369 l 22 250 l 392 250 l 392 29 l 371 29 b 356 14 363 29 356 22 b 371 0 356 7 363 0 l 629 0 b 643 14 638 0 643 7 b 629 29 643 22 638 29 z "},"5":{"ha":696,"x_min":0,"x_max":0,"o":"m 314 588 l 314 782 l 610 782 l 610 860 l 103 861 l 103 499 b 175 503 128 501 151 503 b 314 78 558 503 522 78 b 188 331 165 78 110 331 b 249 217 265 331 249 217 b 190 436 400 217 389 436 b 308 0 -50 436 -53 0 b 314 588 781 0 811 542 z "},"6":{"ha":663,"x_min":0,"x_max":0,"o":"m 385 474 b 382 474 385 474 382 474 b 208 217 157 471 60 217 b 350 396 208 217 228 396 b 349 78 501 396 443 78 b 249 275 293 78 261 164 b 235 214 239 242 235 214 l 232 190 l 208 190 b 136 217 171 190 147 204 b 110 282 119 233 110 256 b 250 469 110 346 161 426 b 401 776 264 629 315 776 b 403 567 476 776 467 631 b 461 514 403 567 396 514 b 388 860 613 514 647 860 b 333 0 -26 860 -147 0 b 385 474 692 0 772 471 z "},"7":{"ha":690,"x_min":0,"x_max":0,"o":"m 185 860 b 222 511 -40 860 -39 511 b 332 732 453 511 482 732 b 214 618 332 732 321 618 b 264 782 115 618 117 782 b 421 782 294 782 357 782 l 403 740 b 451 651 435 719 451 685 b 301 494 451 586 399 518 l 96 0 l 313 0 l 669 860 z "},"8":{"ha":733,"x_min":0,"x_max":0,"o":"m 392 424 b 396 860 765 424 761 860 b 392 424 11 860 -11 424 z m 399 794 b 389 463 533 794 519 463 b 399 794 260 463 258 794 z m 389 489 b 438 522 408 489 425 501 b 379 525 419 524 400 525 b 340 524 367 525 353 525 b 389 489 353 503 368 489 z m 606 461 b 476 404 571 433 526 414 b 371 78 526 290 488 78 b 286 408 256 78 225 294 b 153 469 233 419 189 440 b 375 0 -74 335 -12 0 b 606 461 728 0 801 321 z "},"9":{"ha":686,"x_min":0,"x_max":0,"o":"m 343 860 b 293 388 -17 860 -93 390 l 297 388 b 467 644 522 390 617 644 b 325 464 467 644 449 464 b 326 782 174 464 232 782 b 426 586 382 782 415 697 b 440 647 438 618 440 646 l 443 671 l 467 671 b 540 644 506 671 528 656 b 565 578 557 628 565 606 b 426 390 565 515 514 433 b 300 85 426 213 385 85 b 217 310 224 85 153 246 b 126 382 217 310 214 382 b 293 0 -57 382 0 0 b 343 860 731 0 824 860 z "},"\u0000":{"ha":0,"x_min":0,"x_max":0,"o":""},"\r":{"ha":347,"x_min":0,"x_max":0,"o":""}," ":{"ha":283,"x_min":0,"x_max":0,"o":""},"f":{"ha":703,"x_min":0,"x_max":0,"o":"m 546 888 b 215 824 418 888 351 824 b 50 868 96 824 75 868 b 39 854 46 868 39 864 b 58 803 39 840 44 822 l 58 29 l 36 29 b 22 15 29 29 22 22 b 36 0 22 7 29 0 l 296 0 b 310 14 303 0 310 7 b 296 29 310 22 303 29 l 274 29 l 274 403 b 433 453 322 431 381 453 b 533 414 471 453 506 442 b 450 568 558 438 578 568 b 274 507 378 568 319 540 l 274 725 b 490 768 371 731 419 768 b 596 707 571 768 596 707 b 546 888 700 707 735 888 z "},"g":{"ha":692,"x_min":0,"x_max":0,"o":"m 454 242 b 357 78 454 242 461 78 b 401 776 167 78 215 776 b 435 529 493 776 510 529 b 404 613 388 529 404 613 b 371 640 404 613 406 640 b 422 421 267 640 246 421 b 388 860 676 421 647 860 b 333 0 -26 860 -147 0 b 671 282 529 0 671 125 b 614 376 671 308 664 376 b 439 363 583 376 515 363 b 303 383 394 363 346 367 b 454 242 272 301 288 242 z "},"c":{"ha":661,"x_min":0,"x_max":0,"o":"m 388 860 b 332 0 -26 860 -149 0 b 486 438 693 0 726 438 b 428 217 288 438 276 217 b 489 331 428 217 411 331 b 363 78 567 331 510 78 b 401 776 140 78 214 776 b 403 567 476 776 467 631 b 461 514 403 567 394 514 b 388 860 613 514 646 860 z "},"e":{"ha":728,"x_min":0,"x_max":0,"o":"m 522 349 b 464 128 324 349 313 128 b 546 242 464 128 453 242 b 463 78 632 242 635 78 b 274 78 425 78 346 78 l 274 403 b 533 414 354 450 465 482 b 449 567 557 438 576 567 b 274 507 378 567 319 540 l 274 725 b 490 767 371 731 418 767 b 596 707 571 767 596 707 b 546 888 700 707 733 888 b 214 824 417 888 351 824 b 50 868 94 824 74 868 b 39 853 44 868 39 864 b 57 803 39 840 44 822 l 57 29 l 36 29 b 21 14 28 29 21 22 b 36 0 21 7 28 0 b 542 0 36 0 474 0 b 522 349 746 0 783 349 z "},"d":{"ha":722,"x_min":0,"x_max":0,"o":"m 414 860 b 36 860 358 860 36 860 b 21 846 28 860 21 854 b 36 832 21 838 28 832 l 57 832 l 57 29 l 36 29 b 21 15 28 29 21 22 b 36 0 21 7 28 0 l 219 0 b 171 39 199 11 182 25 b 119 176 138 75 119 124 b 274 358 119 264 172 353 l 274 786 b 313 786 285 786 296 786 b 313 78 544 786 579 78 b 368 236 224 78 190 236 b 283 332 368 236 382 332 b 331 0 99 332 88 0 b 379 0 363 0 354 0 b 414 860 796 0 808 860 z "},"b":{"ha":728,"x_min":0,"x_max":0,"o":"m 543 489 b 432 860 724 565 692 860 b 36 860 375 860 36 860 b 22 846 28 860 22 854 b 36 832 22 838 28 832 l 57 832 l 57 29 l 36 29 b 22 15 28 29 22 22 b 36 0 22 7 28 0 l 219 0 b 171 39 199 11 182 25 b 119 176 138 75 119 124 b 274 358 119 264 172 353 l 274 444 b 490 260 418 433 490 379 b 332 78 490 107 401 78 b 368 236 221 78 190 236 b 283 332 368 236 382 332 b 331 0 99 332 88 0 b 475 0 388 0 450 0 b 543 489 757 0 783 411 z m 450 650 b 274 510 450 531 358 513 l 274 785 b 450 650 396 779 450 751 z "},"a":{"ha":744,"x_min":0,"x_max":0,"o":"m 708 29 l 688 29 l 483 860 l 239 860 b 225 846 232 860 225 854 b 239 831 225 838 232 831 l 257 831 l 111 257 b 221 357 132 300 168 338 l 310 699 l 403 321 b 308 346 375 336 344 346 b 258 49 78 346 56 49 b 328 199 404 49 414 199 b 272 172 328 199 308 172 b 303 274 218 172 218 274 b 432 204 361 274 403 243 l 475 29 l 468 29 b 454 14 461 29 454 22 b 468 0 454 7 461 0 l 708 0 b 724 14 717 0 724 7 b 708 29 724 22 717 29 z m 150 29 l 138 29 l 144 61 b 135 71 142 64 138 67 b 93 179 108 99 93 138 b 93 188 93 182 93 185 l 53 29 l 36 29 b 21 14 28 29 21 22 b 36 0 21 7 28 0 l 150 0 b 165 14 158 0 165 7 b 150 29 165 22 158 29 z "},"l":{"ha":728,"x_min":0,"x_max":0,"o":"m 522 349 b 464 129 324 349 313 129 b 546 242 464 129 453 242 b 463 78 632 242 635 78 b 274 78 425 78 346 78 l 274 832 l 294 832 b 310 846 303 832 310 838 b 294 860 310 854 303 860 l 36 860 b 22 846 28 860 22 854 b 36 832 22 838 28 832 l 57 832 l 57 29 l 36 29 b 22 15 28 29 22 22 b 36 0 22 7 28 0 b 542 0 36 0 474 0 b 522 349 746 0 783 349 z "},"q":{"ha":722,"x_min":0,"x_max":0,"o":"m 661 -33 b 594 -67 661 -33 629 -67 b 431 8 529 -67 486 -26 b 588 757 763 82 757 632 b 619 636 608 719 619 678 b 485 454 619 540 565 471 b 361 83 485 331 475 83 b 378 782 186 83 188 782 b 444 596 486 782 508 596 b 414 654 401 596 414 654 b 449 478 308 654 310 478 b 357 860 664 478 640 860 b 193 46 -29 860 -81 225 b 99 0 143 32 110 8 b 108 -32 82 -12 79 -32 b 576 -179 365 -32 397 -179 b 661 -33 668 -179 719 -74 z "},"o":{"ha":722,"x_min":0,"x_max":0,"o":"m 369 860 b 135 103 -40 860 -47 238 b 104 225 115 140 104 182 b 238 406 104 319 157 390 b 361 778 238 529 247 778 b 344 78 536 778 535 78 b 279 264 236 78 215 264 b 308 206 321 264 308 206 b 274 383 414 206 413 383 b 365 0 58 383 82 0 b 369 860 815 0 810 860 z "},"m":{"ha":981,"x_min":0,"x_max":0,"o":"m 944 29 l 924 29 l 924 832 l 944 832 b 958 846 953 832 958 838 b 944 860 958 854 953 860 l 686 860 b 671 846 678 860 671 854 b 686 832 671 838 678 832 l 692 832 l 469 383 b 58 860 424 576 358 849 l 57 860 b 40 860 51 860 46 860 b 40 825 18 860 18 825 b 57 824 46 825 51 825 l 57 29 l 36 29 b 22 14 28 29 22 22 b 36 0 22 7 28 0 l 176 0 b 190 14 185 0 190 7 b 176 29 190 22 185 29 l 156 29 l 156 693 b 517 147 228 496 268 147 b 564 192 589 147 594 192 b 496 279 532 192 513 226 l 707 701 l 707 29 l 686 29 b 671 14 678 29 671 22 b 686 0 671 7 678 0 l 944 0 b 958 14 953 0 958 7 b 944 29 958 22 953 29 z "},"j":{"ha":642,"x_min":0,"x_max":0,"o":"m 606 860 b 256 860 606 860 299 860 b 231 511 -47 860 -58 511 b 322 732 457 511 489 732 b 232 618 322 732 333 618 b 297 782 115 618 124 782 b 368 782 318 782 343 782 l 368 753 b 418 726 388 747 406 739 b 454 647 442 707 454 679 b 368 518 454 600 425 550 l 368 332 b 261 78 368 140 325 78 b 232 335 189 78 154 232 b 161 383 232 335 232 383 b 293 0 13 383 -10 0 b 585 332 476 0 585 107 l 585 832 l 606 832 b 621 846 614 832 621 838 b 606 860 621 854 614 860 z "},"h":{"ha":764,"x_min":0,"x_max":0,"o":"m 294 29 l 274 29 l 274 160 b 111 315 178 160 111 217 b 274 518 111 413 181 494 l 274 832 l 294 832 b 310 846 303 832 310 838 b 294 860 310 854 303 860 l 36 860 b 22 846 28 860 22 854 b 36 832 22 838 28 832 l 57 832 l 57 29 l 36 29 b 22 15 28 29 22 22 b 36 0 22 7 28 0 l 294 0 b 310 14 303 0 310 7 b 294 29 310 22 303 29 z m 728 29 l 707 29 l 707 832 l 728 832 b 742 846 736 832 742 838 b 728 860 742 854 736 860 l 469 860 b 454 846 461 860 454 854 b 469 832 454 838 461 832 l 490 832 l 490 449 b 333 499 450 478 399 499 b 269 186 103 499 67 186 b 339 336 417 186 425 336 b 283 310 339 336 319 310 b 315 410 229 310 229 410 b 490 256 414 410 467 319 l 490 29 l 469 29 b 454 14 461 29 454 22 b 469 0 454 7 461 0 l 728 0 b 742 14 736 0 742 7 b 728 29 742 22 736 29 z m 274 360 b 274 344 274 354 274 350 z "},"n":{"ha":772,"x_min":0,"x_max":0,"o":"m 733 39 b 707 42 724 39 715 40 l 707 832 l 728 832 b 743 846 736 832 743 838 b 728 860 743 854 736 860 l 588 860 b 574 846 581 860 574 854 b 588 832 574 838 581 832 l 610 832 l 610 131 b 58 860 482 340 428 843 b 40 860 51 860 46 860 b 40 825 18 860 18 825 b 58 822 46 825 51 824 l 58 29 l 36 29 b 22 14 29 29 22 22 b 36 0 22 7 29 0 l 176 0 b 190 14 185 0 190 7 b 176 29 190 22 185 29 l 156 29 l 156 681 b 686 -6 243 442 318 -6 b 733 39 758 -6 763 39 z "},"k":{"ha":742,"x_min":0,"x_max":0,"o":"m 650 285 b 585 253 599 285 585 253 b 588 126 625 218 628 126 b 310 365 518 126 604 349 l 632 832 l 650 832 b 664 846 658 832 664 838 b 651 860 664 853 658 860 l 519 860 b 506 846 513 860 506 854 b 519 832 506 838 513 832 l 531 832 l 274 461 l 274 832 l 294 832 b 310 846 303 832 310 838 b 294 860 310 854 303 860 l 36 860 b 22 846 28 860 22 854 b 36 832 22 838 28 832 l 57 832 l 57 29 l 36 29 b 22 15 28 29 22 22 b 36 0 22 7 28 0 l 294 0 b 310 14 303 0 310 7 b 294 29 310 22 303 29 l 274 29 l 274 296 b 524 0 324 226 335 0 b 650 285 758 0 760 285 z "},"i":{"ha":331,"x_min":0,"x_max":0,"o":"m 294 29 l 274 29 l 274 831 l 294 831 b 310 846 303 831 310 838 b 294 860 310 854 303 860 l 36 860 b 21 846 28 860 21 854 b 36 831 21 838 28 831 l 57 831 l 57 29 l 36 29 b 21 14 28 29 21 22 b 36 0 21 7 28 0 l 294 0 b 310 14 303 0 310 7 b 294 29 310 22 303 29 z "},"w":{"ha":1122,"x_min":0,"x_max":0,"o":"m 1086 860 l 946 860 b 932 846 939 860 932 854 b 946 832 932 838 939 832 l 958 832 l 772 229 b 340 853 706 472 672 853 b 340 818 318 853 319 818 b 497 367 440 818 443 585 l 436 172 l 271 832 l 279 832 b 293 846 288 832 293 838 b 279 860 293 854 288 860 l 36 860 b 22 846 28 860 22 854 b 36 832 22 838 28 832 l 54 832 l 256 29 l 244 29 b 229 15 236 29 229 22 b 244 0 229 7 236 0 l 493 0 b 508 14 501 0 508 7 b 493 29 508 22 501 29 l 489 29 l 549 214 b 872 -12 606 86 700 -12 b 919 32 944 -12 950 32 b 826 90 879 32 850 54 l 1061 832 l 1086 832 b 1101 846 1094 832 1101 838 b 1086 860 1101 854 1094 860 z "},"v":{"ha":819,"x_min":0,"x_max":0,"o":"m 783 860 l 644 860 b 629 846 636 860 629 854 b 644 832 629 838 636 832 l 656 832 l 469 229 b 38 853 403 472 369 853 b 38 818 15 853 17 818 b 569 -12 225 818 68 -12 b 618 32 642 -12 647 32 b 524 90 576 32 547 54 l 758 832 l 783 832 b 799 846 792 832 799 838 b 783 860 799 854 792 860 z "},"s":{"ha":703,"x_min":0,"x_max":0,"o":"m 425 597 b 481 550 425 597 428 550 b 367 872 608 550 682 872 b 119 661 186 872 119 772 b 465 188 119 403 465 317 b 340 78 465 140 431 78 b 257 235 226 78 200 235 b 278 176 281 235 278 176 b 186 368 358 153 358 368 b 343 0 -50 368 -62 0 b 682 232 465 0 682 43 b 333 681 682 407 333 478 b 413 789 333 729 343 789 b 425 597 483 789 465 638 z "},"r":{"ha":731,"x_min":0,"x_max":0,"o":"m 639 285 b 574 253 586 285 574 253 b 575 126 614 218 617 126 b 467 313 525 126 557 243 b 460 860 789 347 779 860 b 36 860 394 860 36 860 b 22 846 29 860 22 854 b 36 832 22 838 29 832 l 58 832 l 58 29 l 36 29 b 22 14 29 29 22 22 b 36 0 22 7 29 0 l 296 0 b 310 14 303 0 310 7 b 296 29 310 22 303 29 l 274 29 l 274 276 b 511 0 315 190 339 0 b 639 285 746 0 747 285 z m 496 592 b 274 372 496 415 375 379 l 274 783 b 496 592 419 776 496 738 z "},"u":{"ha":764,"x_min":0,"x_max":0,"o":"m 728 860 l 469 860 b 454 846 461 860 454 854 b 469 832 454 838 461 832 l 490 832 b 490 276 490 718 490 314 b 374 78 490 167 464 78 b 274 267 297 78 274 156 b 274 832 274 308 274 718 l 294 832 b 310 846 303 832 310 838 b 294 860 310 854 303 860 l 36 860 b 22 846 28 860 22 854 b 36 832 22 838 28 832 l 57 832 b 57 225 57 711 58 254 b 274 0 56 74 97 0 b 490 0 490 0 364 0 b 707 235 601 0 707 69 b 707 832 707 263 707 713 l 728 832 b 742 846 736 832 742 838 b 728 860 742 854 736 860 z "},"t":{"ha":828,"x_min":0,"x_max":0,"o":"m 806 782 b 557 915 792 825 713 915 b 201 876 400 915 369 876 b 36 910 54 876 65 910 b 21 894 29 910 21 904 b 278 765 21 853 88 765 b 299 765 285 765 292 765 l 299 29 l 278 29 b 263 14 269 29 263 22 b 278 0 263 7 269 0 l 536 0 b 550 14 544 0 550 7 b 536 29 550 22 544 29 l 515 29 l 515 790 b 574 793 533 792 553 793 b 793 763 674 793 738 782 b 806 782 801 760 810 767 z "},"p":{"ha":725,"x_min":0,"x_max":0,"o":"m 460 860 b 36 860 394 860 36 860 b 22 846 28 860 22 854 b 36 832 22 838 28 832 l 57 832 l 57 29 l 36 29 b 22 15 28 29 22 22 b 36 0 22 7 28 0 l 294 0 b 310 14 303 0 310 7 b 294 29 310 22 303 29 l 274 29 l 274 311 b 432 311 326 311 401 311 b 460 860 789 311 789 860 z m 274 374 l 274 783 b 496 592 419 776 496 738 b 274 374 496 415 375 379 z "},"z":{"ha":764,"x_min":0,"x_max":0,"o":"m 728 860 b 274 860 728 860 332 860 b 274 511 7 860 -50 511 b 414 732 528 511 565 732 b 274 618 414 732 386 618 b 319 782 117 618 147 782 b 482 782 350 782 415 782 b 472 747 479 771 476 758 b 529 658 511 729 529 693 b 307 486 529 549 400 493 b 58 29 194 354 69 219 l 36 29 b 22 15 28 29 22 22 b 36 0 22 7 28 0 b 571 0 36 0 496 0 b 553 349 764 0 799 349 b 517 108 365 349 375 108 b 574 242 517 108 488 242 b 496 78 657 242 658 78 b 282 78 456 78 358 78 b 706 832 339 351 688 481 l 728 832 b 742 846 736 832 742 838 b 728 860 742 854 736 860 z "},"y":{"ha":736,"x_min":0,"x_max":0,"o":"m 700 860 l 571 860 b 557 846 563 860 557 854 b 571 832 557 838 563 832 l 583 832 l 432 532 l 282 832 l 289 832 b 303 846 297 832 303 838 b 289 860 303 854 297 860 l 36 860 b 21 846 28 860 21 854 b 36 832 21 838 28 832 l 65 832 l 268 414 l 268 29 l 246 29 b 232 14 239 29 232 22 b 246 0 232 7 239 0 l 506 0 b 519 14 513 0 519 7 b 506 29 519 22 513 29 l 483 29 l 483 415 l 686 832 l 700 832 b 715 846 708 832 715 838 b 700 860 715 854 708 860 z "},"x":{"ha":769,"x_min":0,"x_max":0,"o":"m 731 38 b 467 467 603 38 553 256 l 692 832 l 708 832 b 722 846 717 832 722 838 b 710 860 722 853 717 860 l 581 860 b 567 846 572 860 567 854 b 581 832 567 838 572 832 l 589 832 l 422 568 b 38 858 343 726 233 858 b 38 824 15 858 17 824 b 272 333 143 824 175 563 l 79 29 l 58 29 b 43 14 50 29 43 22 b 58 0 43 7 50 0 l 199 0 b 213 14 206 0 213 7 b 199 29 213 22 206 29 l 196 29 l 322 232 b 683 -7 397 97 506 -7 b 731 38 756 -7 761 38 z "},"D":{"ha":953,"x_min":0,"x_max":0,"o":"m 600 994 b 293 994 543 994 293 994 b 264 592 -58 994 -69 592 b 369 846 525 592 563 846 b 265 715 369 846 383 715 b 342 904 131 715 139 904 l 482 904 b 482 90 750 904 792 90 b 438 90 471 90 454 90 l 438 607 b 264 561 394 579 336 561 b 188 568 236 561 210 564 l 188 33 l 163 33 b 146 17 153 33 146 26 b 163 0 146 7 153 0 b 560 0 163 0 540 0 b 600 994 1042 0 1056 994 z "},"E":{"ha":813,"x_min":0,"x_max":0,"o":"m 946 -12 b 808 -75 946 -12 900 -75 b 313 76 672 -75 599 63 l 313 826 b 563 875 425 833 481 875 b 685 806 657 875 685 806 b 626 1014 806 806 844 1014 b 244 940 479 1014 403 940 b 54 992 106 940 82 992 b 40 974 49 992 40 986 b 63 917 40 958 47 938 l 63 -61 l 38 -61 b 21 -78 29 -61 21 -69 b 38 -94 21 -87 29 -94 l 85 -94 b 217 -28 85 -67 151 -28 b 788 -257 467 -28 569 -257 b 946 -12 963 -257 1024 -111 z m 489 594 l 450 524 l 379 485 l 450 446 l 489 375 l 528 446 l 599 485 l 528 524 z "},"F":{"ha":806,"x_min":0,"x_max":0,"o":"m 628 1026 b 246 953 479 1026 403 953 b 56 1004 107 953 83 1004 b 42 986 49 1004 42 999 b 64 929 42 971 49 950 l 64 33 l 39 33 b 22 17 29 33 22 26 b 39 0 22 7 29 0 l 338 0 b 354 17 347 0 354 7 b 338 33 354 26 347 33 l 314 33 l 314 839 b 564 888 425 846 481 888 b 686 818 657 888 686 818 b 628 1026 806 818 846 1026 z m 490 607 l 451 536 l 381 497 l 451 458 l 490 388 l 529 458 l 600 497 l 529 536 z "},"A":{"ha":856,"x_min":0,"x_max":0,"o":"m 819 33 l 793 33 l 557 994 l 303 994 l 58 33 l 36 33 b 22 19 29 33 22 28 l 22 14 b 36 0 22 7 29 0 l 174 0 b 189 14 182 0 189 7 l 189 19 b 174 33 189 28 182 33 l 156 33 l 356 808 l 547 33 l 538 33 b 522 19 529 33 522 28 l 522 14 b 538 0 522 7 529 0 l 819 0 b 833 14 826 0 833 7 l 833 19 b 819 33 833 28 826 33 z m 349 401 l 311 331 l 239 292 l 311 253 l 349 182 l 388 253 l 460 292 l 388 331 z "},"B":{"ha":958,"x_min":0,"x_max":0,"o":"m 747 565 b 619 994 957 654 919 994 b 292 994 561 994 292 994 b 264 592 -58 994 -69 592 b 369 846 525 592 563 846 b 264 715 369 846 383 715 b 342 904 129 715 139 904 l 469 904 b 640 751 588 894 640 858 b 438 589 640 613 535 592 l 438 607 b 264 561 394 579 336 561 b 186 568 236 561 210 564 l 186 33 l 160 33 b 146 19 151 33 146 28 l 146 15 b 160 0 146 7 151 0 l 669 0 b 747 565 994 0 1026 475 z m 504 90 l 438 90 l 438 514 b 688 301 603 501 688 439 b 504 90 688 124 585 90 z "},"G":{"ha":792,"x_min":0,"x_max":0,"o":"m 521 279 b 408 89 521 279 529 89 b 460 897 189 89 244 897 b 499 611 565 897 585 611 b 463 708 444 611 463 708 b 425 740 463 708 464 740 b 483 486 304 740 279 486 b 444 994 778 486 743 994 b 381 0 -35 994 -175 0 b 771 326 608 0 771 144 b 706 435 771 357 764 435 b 504 418 669 435 592 418 b 346 443 451 418 396 425 b 521 279 310 349 328 279 z "},"C":{"ha":758,"x_min":0,"x_max":0,"o":"m 444 994 b 381 0 -33 994 -174 0 b 560 506 799 0 836 506 b 490 250 329 506 317 250 b 563 382 490 250 472 382 b 417 90 653 382 588 90 b 461 897 160 90 244 897 b 463 654 547 897 536 728 b 529 594 463 654 453 594 b 444 994 704 594 744 994 z "},"L":{"ha":389,"x_min":0,"x_max":0,"o":"m 946 -111 b 808 -174 946 -111 900 -174 b 313 -22 672 -174 599 -36 l 313 961 l 338 961 b 354 978 346 961 354 968 b 338 994 354 988 346 994 l 38 994 b 21 978 29 994 21 988 b 38 961 21 968 29 961 l 63 961 l 63 -160 l 38 -160 b 21 -176 29 -160 21 -168 b 38 -193 21 -186 29 -193 l 85 -193 b 217 -126 85 -165 151 -126 b 788 -356 467 -126 569 -356 b 946 -111 963 -356 1024 -210 z "},"N":{"ha":1136,"x_min":0,"x_max":0,"o":"m 1094 44 b 1064 49 1085 44 1074 46 l 1064 961 l 1089 961 b 1106 978 1097 961 1106 968 b 1089 994 1106 988 1097 994 l 926 994 b 910 978 918 994 910 988 b 926 961 910 968 918 961 l 951 961 l 951 147 b 335 1083 782 408 706 1083 b 274 592 -40 1083 -99 592 b 379 846 533 592 571 846 b 274 715 379 846 392 715 b 276 1000 108 715 175 1000 b 314 989 289 1000 301 996 l 314 754 b 328 765 319 757 324 761 b 349 843 349 789 350 831 l 344 876 l 379 876 b 531 749 458 876 531 835 b 478 632 531 708 513 667 b 1040 -6 574 344 704 -6 b 1094 44 1124 -6 1129 44 z m 451 33 l 426 33 l 426 596 b 314 563 396 579 358 568 l 314 33 l 289 33 b 272 17 281 33 272 26 b 289 0 272 7 281 0 l 451 0 b 468 17 460 0 468 7 b 451 33 468 26 460 33 z "},"M":{"ha":1378,"x_min":0,"x_max":0,"o":"m 1339 33 l 1315 33 l 1315 961 l 1339 961 b 1356 978 1349 961 1356 968 b 1339 994 1356 988 1349 994 l 1040 994 b 1024 978 1031 994 1024 988 b 1040 961 1024 968 1031 961 l 1047 961 l 788 438 b 335 1083 721 693 639 1083 b 274 592 -40 1083 -99 592 b 379 846 533 592 572 846 b 274 715 379 846 393 715 b 276 1000 110 715 176 1000 b 314 990 290 1000 303 996 l 314 754 b 328 765 319 757 324 761 b 349 843 349 789 350 829 l 346 876 l 379 876 b 531 749 458 876 531 835 b 476 631 531 707 513 665 b 844 171 543 410 629 171 b 900 222 928 171 935 222 b 821 324 867 222 843 261 l 1064 811 l 1064 33 l 1040 33 b 1024 17 1031 33 1024 26 b 1040 0 1024 7 1031 0 l 1339 0 b 1356 17 1349 0 1356 7 b 1339 33 1356 26 1349 33 z m 451 33 l 426 33 l 426 596 b 314 563 396 579 358 568 l 314 33 l 290 33 b 272 17 281 33 272 26 b 290 0 272 7 281 0 l 451 0 b 468 17 461 0 468 7 b 451 33 468 26 461 33 z "},"I":{"ha":647,"x_min":0,"x_max":0,"o":"m 608 33 l 585 33 b 585 819 585 178 585 743 b 335 1083 585 1006 504 1083 b 274 592 -42 1083 -99 592 b 379 846 533 592 571 846 b 274 715 379 846 392 715 b 289 999 108 715 181 999 b 335 894 325 999 335 963 b 335 775 335 885 335 839 b 349 843 349 799 350 831 l 344 876 l 379 876 b 531 749 458 876 531 835 b 335 565 531 669 463 586 b 335 33 335 361 335 121 l 310 33 b 293 17 300 33 293 26 b 310 0 293 7 300 0 l 608 0 b 625 17 618 0 625 7 b 608 33 625 26 618 33 z "},"Q":{"ha":831,"x_min":0,"x_max":0,"o":"m 763 -39 b 685 -78 763 -39 725 -78 b 496 10 610 -78 560 -31 b 678 875 879 94 872 731 b 713 735 700 832 713 783 b 557 525 713 625 651 543 b 415 96 558 383 547 96 b 435 904 214 96 215 904 b 511 689 560 904 585 689 b 476 757 463 689 476 757 b 517 553 354 757 356 553 b 411 994 765 553 738 994 b 221 54 -36 994 -94 260 b 113 0 163 38 125 10 b 122 -36 92 -14 89 -36 b 665 -207 421 -36 457 -207 b 763 -39 769 -207 829 -85 z "},"H":{"ha":1147,"x_min":0,"x_max":0,"o":"m 608 33 l 585 33 b 585 819 585 178 585 743 b 335 1083 585 1006 503 1083 b 272 592 -42 1083 -99 592 b 378 846 533 592 571 846 b 274 715 378 846 392 715 b 289 999 108 715 181 999 b 335 894 325 999 335 963 b 335 775 335 885 335 839 b 349 843 349 799 349 831 l 344 876 l 378 876 b 531 749 456 876 531 835 b 335 565 531 669 463 586 b 335 33 335 361 335 121 l 310 33 b 293 17 300 33 293 26 b 310 0 293 7 300 0 l 608 0 b 625 17 618 0 625 7 b 608 33 625 26 618 33 z m 1110 33 l 1085 33 l 1085 961 l 1110 961 b 1126 978 1118 961 1126 968 b 1110 994 1126 988 1118 994 l 810 994 b 793 978 801 994 793 988 b 810 961 793 968 801 961 l 835 961 l 835 33 l 810 33 b 793 17 801 33 793 26 b 810 0 793 7 801 0 l 1110 0 b 1126 17 1118 0 1126 7 b 1110 33 1126 26 1118 33 z m 743 499 l 704 569 l 665 499 l 594 460 l 665 421 l 704 350 l 743 421 l 814 460 z "},"O":{"ha":831,"x_min":0,"x_max":0,"o":"m 425 994 b 154 119 -49 994 -56 275 b 118 260 131 163 118 211 b 274 469 118 369 179 451 b 415 899 272 613 283 899 b 396 90 617 899 615 90 b 319 306 271 90 246 306 b 354 238 368 306 354 238 b 314 443 476 238 475 443 b 419 0 65 443 93 0 b 425 994 940 0 935 994 z "},"J":{"ha":736,"x_min":0,"x_max":0,"o":"m 697 994 b 293 994 697 994 343 994 b 264 592 -58 994 -69 592 b 369 846 525 592 563 846 b 265 715 369 846 383 715 b 342 904 131 715 139 904 b 424 904 365 904 393 904 l 424 869 b 522 749 481 856 522 808 b 424 599 522 693 488 635 l 424 385 b 299 90 424 163 372 90 b 267 388 215 90 175 268 b 183 443 267 388 265 443 b 336 0 13 443 -14 0 b 674 385 547 0 674 124 l 674 961 l 697 961 b 714 978 707 961 714 968 b 697 994 714 988 707 994 z "},"K":{"ha":810,"x_min":0,"x_max":0,"o":"m 946 -25 b 810 -62 946 -25 901 -62 b 347 411 621 -62 763 363 l 728 961 l 749 961 b 765 978 757 961 765 968 b 750 994 765 986 758 993 l 599 994 b 582 978 589 994 582 988 b 599 961 582 968 589 961 l 611 961 l 314 533 l 314 961 l 338 961 b 354 978 347 961 354 968 b 338 994 354 988 347 994 l 39 994 b 22 978 29 994 22 988 b 39 961 22 968 29 961 l 64 961 l 64 33 l 39 33 b 22 17 29 33 22 26 b 39 0 22 7 29 0 l 338 0 b 354 17 347 0 354 7 b 338 33 354 26 347 33 l 314 33 l 314 329 b 788 -244 446 193 396 -244 b 946 -25 935 -244 1025 -124 z "},"W":{"ha":1517,"x_min":0,"x_max":0,"o":"m 1479 994 l 1318 994 b 1300 978 1308 994 1300 988 b 1318 961 1300 968 1308 961 l 1332 961 l 1115 265 b 617 986 1039 547 1000 986 b 617 946 590 986 592 946 b 799 424 732 946 735 676 l 728 200 b 593 736 686 367 628 599 b 296 1083 533 969 440 1083 b 306 592 -79 1083 -65 592 l 307 592 b 411 846 567 592 604 846 b 307 715 411 846 425 715 b 226 999 142 715 133 999 b 339 750 279 999 306 907 b 361 765 347 754 356 758 b 382 843 382 789 383 829 l 379 876 l 413 876 b 564 749 492 876 564 835 b 376 567 564 671 499 590 b 517 33 407 418 450 238 l 506 33 b 489 17 496 33 489 26 b 506 0 489 7 496 0 l 793 0 b 811 17 803 0 811 7 b 793 33 811 26 803 33 l 789 33 l 857 247 b 1232 -14 924 99 1033 -14 b 1288 36 1315 -14 1321 36 b 1179 104 1240 36 1206 63 l 1450 961 l 1479 961 b 1496 978 1489 961 1496 968 b 1479 994 1496 988 1489 994 z "},"T":{"ha":1019,"x_min":0,"x_max":0,"o":"m 842 1067 b 293 994 664 1067 726 994 b 264 592 -57 994 -69 592 b 369 846 525 592 563 846 b 265 715 369 846 383 715 b 342 904 131 715 140 904 b 778 904 396 904 688 904 b 900 835 871 904 900 835 b 842 1067 1019 835 1060 1067 z m 674 33 l 649 33 l 649 874 l 404 874 b 522 749 471 865 522 819 b 399 586 522 686 479 621 l 399 33 l 375 33 b 358 17 365 33 358 26 b 375 0 358 7 365 0 l 674 0 b 690 17 683 0 690 7 b 674 33 690 26 683 33 z "},"R":{"ha":1103,"x_min":0,"x_max":0,"o":"m 1203 -25 b 1065 -62 1203 -25 1157 -62 b 767 360 908 -62 981 235 b 547 1079 1251 508 1108 1079 b 258 592 -74 1079 -111 592 b 364 846 519 592 557 846 b 260 715 364 846 378 715 b 546 1003 128 715 176 1003 b 569 433 922 1003 999 481 l 569 972 b 319 919 483 972 394 965 l 319 775 b 333 843 333 799 335 831 l 331 876 l 364 876 b 515 749 443 876 515 835 b 319 565 515 669 447 586 l 319 33 l 296 33 b 279 17 286 33 279 26 b 296 0 279 7 286 0 l 594 0 b 611 17 604 0 611 7 b 594 33 611 26 604 33 l 569 33 l 569 326 b 572 326 571 326 571 326 b 1044 -244 701 188 654 -244 b 1203 -25 1190 -244 1281 -124 z "},"V":{"ha":1197,"x_min":0,"x_max":0,"o":"m 1158 994 l 997 994 b 981 978 988 994 981 988 b 997 961 981 968 988 961 l 1011 961 l 782 224 b 335 1083 669 525 654 1083 b 274 592 -40 1083 -99 592 b 379 846 535 592 572 846 b 275 715 379 846 393 715 b 276 1000 110 715 176 1000 b 381 876 326 1000 358 951 b 531 749 458 876 531 835 b 439 603 531 694 500 639 b 911 -14 493 318 578 -14 b 967 36 994 -14 1001 36 b 854 92 921 36 885 57 l 1129 961 l 1158 961 b 1175 978 1168 961 1175 968 b 1158 994 1175 988 1168 994 z "},"P":{"ha":1083,"x_min":0,"x_max":0,"o":"m 549 1079 b 258 592 -74 1079 -110 592 b 364 846 519 592 557 846 b 260 715 364 846 378 715 b 546 1003 128 715 176 1003 b 571 433 922 1003 999 481 l 571 972 b 321 919 485 972 396 967 l 321 775 b 335 843 335 799 335 831 l 331 876 l 364 876 b 517 749 442 876 517 835 b 321 565 517 669 449 586 l 321 33 l 296 33 b 279 17 286 33 279 26 b 296 0 279 7 286 0 l 594 0 b 611 17 604 0 611 7 b 594 33 611 26 604 33 l 571 33 l 571 326 b 549 1079 1281 368 1174 1079 z "},"U":{"ha":1147,"x_min":0,"x_max":0,"o":"m 1110 994 l 810 994 b 793 978 801 994 793 988 b 810 961 793 968 801 961 l 835 961 b 835 319 835 831 835 363 b 700 90 835 193 804 90 b 585 308 611 90 585 179 b 585 819 585 350 585 749 b 335 1083 585 1006 503 1083 b 272 592 -42 1083 -99 592 b 378 846 533 592 571 846 b 274 715 378 846 392 715 b 289 999 108 715 181 999 b 335 894 325 999 335 963 b 335 775 335 885 335 839 b 349 843 349 799 349 831 l 344 876 l 378 876 b 531 749 456 876 531 835 b 335 565 531 669 463 586 b 335 260 335 535 335 292 b 585 0 333 85 379 0 b 835 0 835 0 689 0 b 1085 271 964 0 1085 81 b 1085 961 1085 304 1085 824 l 1110 961 b 1126 978 1118 961 1126 968 b 1110 994 1126 988 1118 994 z "},"S":{"ha":806,"x_min":0,"x_max":0,"o":"m 489 690 b 553 636 489 690 490 636 b 421 1008 699 636 785 1008 b 135 764 211 1008 135 893 b 535 217 135 465 535 367 b 389 90 535 163 494 90 b 293 272 258 90 226 272 b 318 204 322 272 318 204 b 213 425 411 176 411 425 b 394 0 -61 425 -76 0 b 785 268 535 0 785 50 b 382 786 785 471 382 551 b 474 911 382 843 393 911 b 489 690 556 911 535 736 z "},"Z":{"ha":882,"x_min":0,"x_max":0,"o":"m 946 0 b 808 -62 946 0 900 -62 b 322 89 674 -62 601 72 b 813 961 388 406 790 554 l 838 961 b 854 978 847 961 854 968 b 838 994 854 988 847 994 b 313 994 838 994 379 994 b 313 592 3 994 -61 592 b 475 846 606 592 649 846 b 313 715 475 846 442 715 b 365 904 132 715 167 904 b 553 904 401 904 476 904 b 542 864 550 890 546 876 b 608 761 588 843 608 801 b 531 624 608 711 579 661 b 350 563 497 599 439 569 b 63 14 217 404 68 246 l 63 -49 l 38 -49 b 21 -65 29 -49 21 -57 b 38 -82 21 -75 29 -82 l 85 -82 b 217 -15 85 -54 151 -15 b 788 -244 467 -15 569 -244 b 946 0 963 -244 1024 -99 z "},"Y":{"ha":1094,"x_min":0,"x_max":0,"o":"m 1056 994 l 907 994 b 889 978 897 994 889 988 b 907 961 889 968 897 961 l 919 961 l 746 615 b 617 878 711 685 665 778 b 335 1090 515 1082 413 1090 b 274 599 -40 1090 -99 599 b 379 853 533 599 572 853 b 274 722 379 853 392 722 b 265 1007 108 722 165 1007 b 358 883 300 1007 319 967 l 379 883 b 531 756 458 883 531 842 b 478 639 531 715 513 674 b 556 479 506 582 533 525 l 556 33 l 531 33 b 514 17 522 33 514 26 b 531 0 514 7 522 0 l 831 0 b 847 17 839 0 847 7 b 831 33 847 26 839 33 l 806 33 l 806 481 l 1040 961 l 1056 961 b 1072 978 1065 961 1072 968 b 1056 994 1072 988 1065 994 z "},"X":{"ha":1231,"x_min":0,"x_max":0,"o":"m 1189 43 b 885 535 1042 43 983 292 b 1146 961 1003 728 1146 961 l 1183 961 b 1200 978 1192 961 1200 968 b 1183 994 1200 988 1192 994 l 1021 994 b 1004 978 1011 994 1004 988 b 1021 961 1004 968 1011 961 l 1025 961 b 832 657 989 904 914 785 b 388 993 742 840 614 993 b 388 953 361 993 363 953 b 657 390 508 953 546 654 b 583 286 629 350 604 314 b 244 -60 444 94 338 -60 b 336 124 168 -60 129 124 b 236 263 336 124 351 263 b 232 -150 -25 263 -71 -150 b 711 249 385 -150 517 -71 b 719 263 714 253 717 257 b 1133 -8 806 110 932 -8 b 1189 43 1218 -8 1224 43 z "},"þ":{"ha":544,"x_min":0,"x_max":0,"o":"m 299 719 b 239 713 278 719 257 717 l 239 860 l 22 860 l 22 0 l 239 0 l 239 147 b 296 140 257 143 275 140 b 299 719 600 140 596 719 z m 293 193 b 301 664 189 193 188 664 b 293 193 411 664 400 193 z "},"°":{"ha":525,"x_min":0,"x_max":0,"o":"m 263 401 b 496 635 392 401 496 506 b 263 868 496 764 392 868 b 29 635 133 868 29 764 b 263 401 29 506 133 401 z m 263 789 b 417 635 347 789 417 719 b 263 481 417 550 347 481 b 108 635 178 481 108 550 b 263 789 108 719 178 789 z "},"˚":{"ha":511,"x_min":0,"x_max":0,"o":"m 256 401 b 489 635 385 401 489 506 b 256 868 489 764 385 868 b 22 635 126 868 22 764 b 256 401 22 506 126 401 z m 256 789 b 410 635 340 789 410 719 b 256 481 410 550 340 481 b 101 635 171 481 101 550 b 256 789 101 719 171 789 z "},"º":{"ha":394,"x_min":0,"x_max":0,"o":"m 204 863 b 201 442 -24 863 -36 442 b 204 863 422 442 419 863 z m 200 479 b 206 822 124 479 122 822 b 200 479 285 822 276 479 z "},"Þ":{"ha":525,"x_min":0,"x_max":0,"o":"m 300 713 l 239 713 l 239 860 l 22 860 l 22 0 l 239 0 l 239 149 l 308 149 b 503 336 440 147 503 182 b 503 524 503 524 503 414 b 300 713 503 621 443 713 z m 272 336 l 239 336 l 239 524 l 264 524 b 436 424 358 524 436 501 b 272 336 436 356 369 336 z "},"®":{"ha":1103,"x_min":0,"x_max":0,"o":"m 551 964 b 21 433 260 964 21 725 b 551 -97 21 140 260 -97 b 1082 433 844 -97 1082 140 b 551 964 1082 725 844 964 z m 551 -29 b 90 433 297 -29 90 178 b 551 894 90 688 297 894 b 1014 433 806 894 1014 688 b 551 -29 1014 178 806 -29 z m 761 321 b 711 296 722 321 711 296 b 713 200 743 269 744 200 b 629 343 675 200 699 289 b 624 764 876 369 869 764 l 299 764 b 288 753 293 764 288 758 b 299 742 288 746 293 742 l 315 742 l 315 125 l 299 125 b 288 114 293 125 288 119 b 299 103 288 107 293 103 l 497 103 b 508 114 504 103 508 107 b 497 125 508 119 504 125 l 482 125 l 482 314 b 664 103 514 249 531 103 b 761 321 844 103 846 321 z m 482 389 l 482 704 b 651 557 593 699 651 669 b 482 389 651 421 560 394 z "},"©":{"ha":1103,"x_min":0,"x_max":0,"o":"m 551 964 b 21 433 260 964 21 725 b 551 -97 21 140 260 -97 b 1082 433 844 -97 1082 140 b 551 964 1082 725 844 964 z m 551 -29 b 90 433 297 -29 90 178 b 551 894 90 688 297 894 b 1014 433 806 894 1014 688 b 551 -29 1014 178 806 -29 z m 671 438 b 626 268 518 438 510 268 b 674 356 626 268 614 356 b 576 163 733 356 690 163 b 606 699 406 163 463 699 b 607 538 664 699 656 586 b 651 497 607 538 601 497 b 596 764 768 497 794 764 b 553 103 276 764 183 103 b 671 438 829 103 856 438 z "},"¢":{"ha":661,"x_min":0,"x_max":0,"o":"m 486 438 b 428 217 288 438 276 217 b 489 331 428 217 411 331 b 363 78 567 331 510 78 b 401 776 140 78 214 776 b 403 567 476 776 467 631 b 461 514 403 567 394 514 b 388 860 613 514 646 860 b 369 860 382 860 375 860 l 369 958 l 292 958 l 292 844 b 292 3 -32 729 -104 46 l 292 -99 l 369 -99 l 369 1 b 486 438 694 31 718 436 z "},"²":{"ha":374,"x_min":0,"x_max":0,"o":"m 254 610 b 225 503 157 610 151 503 b 265 558 225 503 221 558 b 225 478 308 558 310 478 b 171 478 214 478 193 478 b 197 494 181 483 189 489 b 163 549 174 504 163 526 b 186 600 163 567 171 586 b 254 622 199 610 219 622 b 290 618 267 622 279 621 b 167 860 335 733 297 860 b 92 615 6 860 -6 615 b 150 654 143 615 150 654 b 168 819 115 689 114 819 b 29 478 254 819 192 478 b 29 439 32 464 26 453 b 46 440 35 439 40 440 b 264 439 93 439 206 439 b 254 610 364 439 382 610 z "},"¹":{"ha":197,"x_min":0,"x_max":0,"o":"m 163 454 l 151 454 l 151 860 l 46 842 l 36 842 b 28 835 32 842 28 839 b 36 828 28 831 32 828 l 46 828 l 46 454 l 36 454 b 28 446 32 454 28 450 b 36 439 28 443 32 439 l 163 439 b 169 446 167 439 169 443 b 163 454 169 450 167 454 z "},"³":{"ha":375,"x_min":0,"x_max":0,"o":"m 250 679 b 201 860 338 725 313 860 b 151 690 74 860 78 690 b 179 717 183 690 179 717 b 194 819 149 747 157 819 b 183 688 238 819 257 688 l 182 663 b 171 478 275 663 263 478 b 108 601 99 478 71 601 b 139 546 147 601 139 546 b 111 653 213 546 208 653 b 168 439 -7 653 -8 439 b 250 679 379 439 400 633 z "},"ª":{"ha":400,"x_min":0,"x_max":0,"o":"m 365 454 l 354 454 l 254 860 l 135 860 b 128 853 132 860 128 857 b 135 846 128 850 132 846 l 144 846 l 72 565 b 126 614 82 586 100 604 l 169 782 l 215 596 b 169 608 201 604 186 608 b 144 463 56 608 46 463 b 178 536 215 463 221 536 b 151 524 178 536 169 524 b 167 574 125 524 125 574 b 229 539 194 574 215 558 l 250 454 l 247 454 b 240 446 243 454 240 450 b 247 439 240 443 243 439 l 365 439 b 372 446 368 439 372 443 b 365 454 372 450 368 454 z m 92 454 l 85 454 l 89 469 b 83 474 88 471 86 472 b 64 532 68 490 64 510 l 44 454 l 36 454 b 28 446 32 454 28 450 b 36 439 28 443 32 439 l 92 439 b 99 446 96 439 99 443 b 92 454 99 450 96 454 z "},"ˆ":{"ha":460,"x_min":0,"x_max":0,"o":"m 431 658 l 229 860 l 28 658 l 83 604 l 229 750 l 376 604 z "},"ˇ":{"ha":460,"x_min":0,"x_max":0,"o":"m 28 806 l 229 604 l 431 806 l 376 860 l 229 714 l 83 860 z "},"`":{"ha":306,"x_min":0,"x_max":0,"o":"m 278 596 l 211 860 l 28 860 l 200 596 z "},"´":{"ha":306,"x_min":0,"x_max":0,"o":"m 106 596 l 278 860 l 94 860 l 28 596 z "},"…":{"ha":646,"x_min":0,"x_max":0,"o":"m 113 179 b 22 90 63 179 22 139 b 113 0 22 40 63 0 b 201 90 161 0 201 40 b 113 179 201 139 161 179 z m 324 179 b 233 90 274 179 233 139 b 324 0 233 40 274 0 b 413 90 372 0 413 40 b 324 179 413 139 372 179 z m 535 179 b 444 90 485 179 444 139 b 535 0 444 40 485 0 b 624 90 583 0 624 40 b 535 179 624 139 583 179 z "},"¡":{"ha":401,"x_min":0,"x_max":0,"o":"m 201 522 b 381 701 300 522 381 603 b 201 882 381 801 300 882 b 21 701 101 882 21 801 b 201 522 21 603 101 522 z m 329 -196 l 308 -196 l 308 526 b 201 496 278 507 240 496 b 93 526 161 496 124 507 l 93 -196 l 71 -196 b 57 -210 63 -196 57 -201 b 71 -225 57 -218 63 -225 l 329 -225 b 344 -210 338 -225 344 -218 b 329 -196 344 -201 338 -196 z "},"¨":{"ha":465,"x_min":0,"x_max":0,"o":"m 118 860 b 28 771 68 860 28 821 b 118 681 28 721 68 681 b 207 771 168 681 207 721 b 118 860 207 821 168 860 z m 347 860 b 258 771 299 860 258 821 b 347 681 258 721 299 681 b 438 771 397 681 438 721 b 347 860 438 821 397 860 z "},"˛":{"ha":317,"x_min":0,"x_max":0,"o":"m 215 78 b 207 -258 -17 78 -65 -258 b 322 -72 390 -258 485 -72 b 197 -162 322 -72 283 -162 b 214 -1 99 -162 88 -1 z "},"¸":{"ha":246,"x_min":0,"x_max":0,"o":"m 67 -194 b 224 -81 169 -194 224 -137 b 111 28 224 -19 165 19 l 167 110 l 110 147 l 22 19 l 50 -35 b 156 -81 74 -35 156 -43 b 67 -126 156 -100 128 -126 z "},"!":{"ha":401,"x_min":0,"x_max":0,"o":"m 72 853 l 93 853 l 93 131 b 201 161 124 150 161 161 b 308 131 240 161 278 150 l 308 853 l 331 853 b 344 867 339 853 344 858 b 331 882 344 875 339 882 l 72 882 b 57 867 64 882 57 875 b 72 853 57 858 64 853 z m 201 135 b 21 -44 101 135 21 54 b 201 -225 21 -144 101 -225 b 381 -44 300 -225 381 -144 b 201 135 381 54 300 135 z "},":":{"ha":224,"x_min":0,"x_max":0,"o":"m 113 496 b 201 586 161 496 201 536 b 113 675 201 636 161 675 b 22 586 63 675 22 636 b 113 496 22 536 63 496 z m 113 179 b 22 90 63 179 22 139 b 113 0 22 40 63 0 b 201 90 161 0 201 40 b 113 179 201 139 161 179 z "},";":{"ha":301,"x_min":0,"x_max":0,"o":"m 171 496 b 260 586 219 496 260 536 b 171 675 260 636 219 675 b 81 586 121 675 81 636 b 171 496 81 536 121 496 z m 97 138 l 21 -126 l 99 -126 l 281 138 z "},",":{"ha":269,"x_min":0,"x_max":0,"o":"m 67 -126 l 249 138 l 65 138 l -11 -126 z "},".":{"ha":224,"x_min":0,"x_max":0,"o":"m 201 90 b 113 179 201 139 161 179 b 22 90 63 179 22 139 b 113 0 22 40 63 0 b 201 90 161 0 201 40 z "},"^":{"ha":713,"x_min":0,"x_max":0,"o":"m 683 385 l 396 860 l 318 860 l 29 385 l 107 385 l 357 796 l 606 385 z "},"~":{"ha":829,"x_min":0,"x_max":0,"o":"m 22 549 b 279 419 22 507 88 419 b 575 447 421 419 479 447 b 794 417 675 447 739 436 b 806 436 803 414 811 421 b 558 569 792 479 714 569 b 203 531 400 569 371 531 b 36 564 56 531 67 564 b 22 549 31 564 22 558 z "},"•":{"ha":293,"x_min":0,"x_max":0,"o":"m 272 469 b 147 596 272 539 215 596 b 21 469 78 596 21 539 b 147 344 21 400 78 344 b 272 469 215 344 272 400 z "},"·":{"ha":224,"x_min":0,"x_max":0,"o":"m 201 469 b 113 560 201 519 161 560 b 22 469 63 560 22 519 b 113 381 22 421 63 381 b 201 469 161 381 201 421 z "},"*":{"ha":407,"x_min":0,"x_max":0,"o":"m 378 649 l 285 692 l 372 746 l 331 811 l 243 757 l 243 860 l 165 860 l 165 747 l 61 794 l 29 724 l 122 681 l 35 626 l 76 561 l 165 615 l 165 513 l 243 513 l 243 625 l 346 578 z "},"\"":{"ha":460,"x_min":0,"x_max":0,"o":"m 247 860 l 300 596 l 378 596 l 431 860 z m 82 596 l 160 596 l 213 860 l 29 860 z "},"'":{"ha":240,"x_min":0,"x_max":0,"o":"m 160 596 l 213 860 l 29 860 l 82 596 z "},"˜":{"ha":465,"x_min":0,"x_max":0,"o":"m 28 851 b 158 722 28 810 47 722 b 329 750 240 722 274 750 b 429 719 372 750 397 739 b 436 739 435 717 439 724 b 311 872 428 782 401 872 b 132 833 221 872 200 833 b 36 867 65 833 54 867 b 28 851 33 867 28 861 z "},"˙":{"ha":224,"x_min":0,"x_max":0,"o":"m 201 771 b 113 860 201 821 161 860 b 22 771 63 860 22 821 b 113 681 22 721 63 681 b 201 771 161 681 201 721 z "},"ß":{"ha":769,"x_min":0,"x_max":0,"o":"m 535 457 b 642 683 535 551 642 582 b 385 860 642 785 538 860 b 57 563 140 860 57 739 l 57 29 l 36 29 b 21 15 28 29 21 22 b 36 0 21 7 28 0 l 294 0 b 308 14 303 0 308 7 b 294 29 308 22 303 29 l 274 29 l 274 563 b 394 797 274 701 319 797 b 461 685 436 797 461 742 b 413 463 461 590 413 564 b 529 168 413 360 529 271 b 458 78 529 104 488 78 b 399 208 383 78 399 208 b 460 0 283 246 283 0 b 749 190 653 0 749 86 b 535 457 749 367 535 361 z "},"¤":{"ha":540,"x_min":0,"x_max":0,"o":"m 496 453 b 456 582 496 500 481 544 l 519 646 l 464 701 l 400 636 b 271 678 364 663 319 678 b 142 636 222 678 178 663 l 78 701 l 22 646 l 86 582 b 46 453 61 544 46 500 b 86 324 46 404 61 360 l 22 258 l 78 204 l 142 268 b 271 226 178 242 222 226 b 400 268 319 226 364 242 l 464 204 l 519 258 l 456 324 b 496 453 481 360 496 404 z m 271 332 b 151 453 204 332 151 386 b 271 572 151 518 204 572 b 390 453 336 572 390 518 b 271 332 390 386 336 332 z "},"@":{"ha":1228,"x_min":0,"x_max":0,"o":"m 651 913 b 529 -39 -154 913 -179 -39 b 613 58 643 -39 664 24 b 651 826 61 58 103 826 b 903 136 1185 826 975 136 b 868 697 844 136 868 625 b 758 749 868 733 814 749 b 651 708 706 749 651 733 b 650 699 651 708 651 706 b 542 726 622 715 586 726 b 488 167 238 726 246 167 b 672 333 579 167 638 247 b 904 54 703 188 768 54 b 651 913 1208 54 1490 913 z m 526 276 b 567 651 442 276 460 651 b 636 589 601 651 622 625 b 526 276 626 517 589 276 z "},"¿":{"ha":674,"x_min":0,"x_max":0,"o":"m 350 501 b 529 681 449 501 529 582 b 350 860 529 781 449 860 b 171 681 251 860 171 781 b 350 501 171 582 251 501 z m 519 278 b 403 196 417 278 403 196 b 347 -142 474 126 474 -142 b 251 51 276 -142 246 -58 b 433 493 258 213 379 338 b 350 475 408 482 379 475 b 219 521 300 475 256 493 b 22 63 164 367 22 218 b 313 -225 22 -96 118 -225 b 519 278 728 -225 719 278 z "},"&":{"ha":763,"x_min":0,"x_max":0,"o":"m 742 474 l 257 474 l 257 782 b 447 782 331 782 410 782 b 529 618 618 782 617 618 b 449 732 438 618 449 732 b 507 511 297 732 308 511 b 526 860 767 511 731 860 b 33 860 457 860 33 860 l 33 382 l 94 382 b 376 0 -58 244 26 0 b 649 382 700 0 788 244 l 742 382 z m 372 78 b 383 382 217 78 214 382 b 372 78 546 382 531 78 z "},"?":{"ha":674,"x_min":0,"x_max":0,"o":"m 272 440 b 328 778 201 510 201 778 b 424 585 399 778 429 693 b 242 143 417 424 294 299 b 325 161 267 154 294 161 b 456 115 374 161 419 143 b 653 574 510 269 653 418 b 363 860 653 732 557 860 b 156 358 -53 860 -44 358 b 272 440 258 358 272 440 z m 325 135 b 146 -44 226 135 146 54 b 325 -225 146 -144 226 -225 b 504 -44 424 -225 504 -144 b 325 135 504 54 424 135 z "},"%":{"ha":764,"x_min":0,"x_max":0,"o":"m 211 399 b 214 860 453 399 450 860 b 211 399 -36 860 -50 399 z m 519 483 l 692 860 l 475 860 l 408 714 b 418 629 415 686 418 658 b 254 376 418 524 368 400 l 82 0 l 299 0 l 358 132 b 346 225 350 161 346 193 b 519 483 346 342 406 460 z m 215 815 b 208 440 303 815 294 440 b 215 815 125 440 125 815 z m 564 463 b 563 0 315 463 301 0 b 564 463 804 0 801 463 z m 560 42 b 567 418 476 42 475 418 b 560 42 653 418 644 42 z "},"¥":{"ha":736,"x_min":0,"x_max":0,"o":"m 700 860 l 571 860 b 556 846 563 860 556 854 b 571 832 556 838 563 832 l 582 832 l 432 532 l 282 832 l 289 832 b 303 846 296 832 303 838 b 289 860 303 854 296 860 l 36 860 b 21 846 28 860 21 854 b 36 832 21 838 28 832 l 65 832 l 243 464 l 178 464 l 178 386 l 267 386 l 267 310 l 178 310 l 178 232 l 267 232 l 267 29 l 246 29 b 232 14 239 29 232 22 b 246 0 232 7 239 0 l 504 0 b 519 14 513 0 519 7 b 504 29 519 22 513 29 l 483 29 l 483 232 l 563 232 l 563 310 l 483 310 l 483 386 l 563 386 l 563 464 l 507 464 l 686 832 l 700 832 b 714 846 708 832 714 838 b 700 860 714 854 708 860 z "},"#":{"ha":814,"x_min":0,"x_max":0,"o":"m 426 860 l 210 860 l 183 679 l 400 679 z m 735 860 l 518 860 l 492 679 l 708 679 z m 75 653 l 75 575 l 792 575 l 792 653 z m 164 549 l 133 336 l 350 336 l 381 549 z m 472 549 l 442 336 l 658 336 l 689 549 z m 22 232 l 739 232 l 739 310 l 22 310 z m 85 0 l 301 0 l 331 206 l 115 206 z m 393 0 l 610 0 l 639 206 l 422 206 z "},"€":{"ha":565,"x_min":0,"x_max":0,"o":"m 332 343 l 407 343 l 407 421 l 326 421 b 332 496 328 446 329 471 l 407 496 l 407 574 l 347 574 b 544 778 376 689 443 778 l 542 860 b 124 574 314 860 175 732 l 22 574 l 22 496 l 106 496 b 101 421 103 471 101 446 l 22 421 l 22 343 l 110 343 b 536 0 143 161 286 0 l 532 78 b 332 343 415 78 349 200 z "},"$":{"ha":703,"x_min":0,"x_max":0,"o":"m 333 681 b 413 789 333 729 342 789 b 425 597 483 789 465 638 b 481 551 425 597 428 551 b 399 871 603 551 676 850 l 399 963 l 321 963 l 321 871 b 119 661 174 854 119 763 b 465 188 119 403 465 317 b 340 78 465 140 431 78 b 257 235 226 78 199 235 b 278 178 281 235 278 178 b 186 368 358 153 358 368 b 321 0 -44 368 -62 14 l 321 -93 l 399 -93 l 399 3 b 682 232 521 15 682 69 b 333 681 682 407 333 478 z "},"\\":{"ha":494,"x_min":0,"x_max":0,"o":"m 472 0 l 99 860 l 21 860 l 394 0 z "},"/":{"ha":494,"x_min":0,"x_max":0,"o":"m 99 0 l 472 860 l 394 860 l 21 0 z "},"†":{"ha":428,"x_min":0,"x_max":0,"o":"m 407 597 l 253 597 l 253 860 l 175 860 l 175 597 l 21 597 l 21 519 l 175 519 l 175 0 l 253 0 l 253 519 l 407 519 z "},"{":{"ha":519,"x_min":0,"x_max":0,"o":"m 499 940 l 499 1018 b 106 750 151 1018 106 913 b 21 428 106 586 21 428 b 101 140 21 428 101 267 b 499 -157 101 14 132 -157 l 499 -79 b 325 138 332 -79 324 -29 b 238 435 328 306 238 435 b 329 744 238 435 329 588 b 499 940 329 901 331 940 z "},"[":{"ha":428,"x_min":0,"x_max":0,"o":"m 407 940 l 407 1018 l 21 1018 l 21 -157 l 407 -157 l 407 -79 l 238 -79 l 238 940 z "},"]":{"ha":428,"x_min":0,"x_max":0,"o":"m 21 -79 l 21 -157 l 407 -157 l 407 1018 l 21 1018 l 21 940 l 190 940 l 190 -79 z "},"£":{"ha":782,"x_min":0,"x_max":0,"o":"m 576 349 b 518 129 378 349 368 129 b 600 242 518 129 507 242 b 517 78 688 242 689 78 b 328 78 481 78 401 78 b 328 339 328 144 328 244 l 407 339 l 407 417 l 328 417 b 328 583 328 494 328 558 b 417 778 328 663 356 778 b 431 513 507 778 501 582 b 549 431 431 513 446 431 b 397 860 747 431 724 860 b 111 531 193 860 111 718 b 111 417 111 496 111 458 l 22 417 l 22 339 l 111 339 b 111 29 111 214 111 85 l 90 29 b 76 14 82 29 76 22 b 90 0 76 7 82 0 l 596 0 b 576 349 800 0 838 349 z "},"|":{"ha":121,"x_min":0,"x_max":0,"o":"m 100 -99 l 100 947 l 22 947 l 22 -99 z "},"}":{"ha":519,"x_min":0,"x_max":0,"o":"m 21 -79 l 21 -157 b 413 113 368 -157 413 -51 b 499 433 413 276 499 433 b 418 722 499 433 418 596 b 21 1018 418 849 388 1018 l 21 940 b 193 724 186 940 196 890 b 282 428 190 556 282 428 b 190 118 282 428 190 275 b 21 -79 190 -39 189 -79 z "},"§":{"ha":761,"x_min":0,"x_max":0,"o":"m 739 363 b 469 710 739 499 469 553 b 531 794 469 749 476 794 b 540 646 586 794 571 676 b 583 610 540 646 542 610 b 494 860 682 610 739 860 b 303 694 354 860 303 782 b 304 676 303 689 303 683 b 290 678 299 678 294 678 b 99 513 149 678 99 600 b 367 146 99 313 367 246 b 269 60 367 108 339 60 b 204 182 181 60 160 182 b 221 138 224 182 221 138 b 150 285 283 118 283 285 b 272 0 -33 285 -43 0 b 535 186 392 0 535 43 b 739 363 626 197 739 242 z m 510 247 b 264 528 444 339 264 399 b 319 611 264 564 271 608 b 571 328 379 474 571 413 b 510 247 571 297 554 261 z "},"«":{"ha":633,"x_min":0,"x_max":0,"o":"m 411 681 l 411 758 l 21 469 l 21 392 l 411 103 l 411 181 l 85 431 z m 613 758 l 222 469 l 222 392 l 613 103 l 613 181 l 286 431 l 613 681 z "},"»":{"ha":633,"x_min":0,"x_max":0,"o":"m 222 181 l 222 103 l 613 392 l 613 469 l 222 758 l 222 681 l 549 431 z m 21 103 l 411 392 l 411 469 l 21 758 l 21 681 l 347 431 l 21 181 z "},"×":{"ha":433,"x_min":0,"x_max":0,"o":"m 413 565 l 357 619 l 217 479 l 76 619 l 21 565 l 161 425 l 21 283 l 76 229 l 217 369 l 357 229 l 413 283 l 272 425 z "},"(":{"ha":386,"x_min":0,"x_max":0,"o":"m 208 1035 b 208 -174 -46 781 -35 68 l 364 -174 b 226 428 364 -174 226 1 b 364 1035 226 853 364 1035 z "},")":{"ha":386,"x_min":0,"x_max":0,"o":"m 178 -174 b 178 1035 432 81 421 792 l 22 1035 b 160 433 22 1035 160 858 b 22 -174 160 7 22 -174 z "},"›":{"ha":433,"x_min":0,"x_max":0,"o":"m 21 103 l 413 392 l 413 469 l 21 758 l 21 681 l 347 431 l 21 181 z "},"‹":{"ha":433,"x_min":0,"x_max":0,"o":"m 413 758 l 21 469 l 21 392 l 413 103 l 413 181 l 85 431 l 413 681 z "},"+":{"ha":518,"x_min":0,"x_max":0,"o":"m 497 464 l 299 464 l 299 663 l 221 663 l 221 464 l 22 464 l 22 386 l 221 386 l 221 188 l 299 188 l 299 386 l 497 386 z "},"<":{"ha":518,"x_min":0,"x_max":0,"o":"m 497 758 l 22 469 l 22 392 l 497 103 l 497 181 l 86 431 l 497 681 z "},">":{"ha":518,"x_min":0,"x_max":0,"o":"m 22 103 l 497 392 l 497 469 l 22 758 l 22 681 l 433 431 l 22 181 z "},"=":{"ha":428,"x_min":0,"x_max":0,"o":"m 21 464 l 21 386 l 407 386 l 407 464 z m 21 232 l 407 232 l 407 310 l 21 310 z "},"_":{"ha":518,"x_min":0,"x_max":0,"o":"m 497 78 l 22 78 l 22 0 l 497 0 z "},"—":{"ha":617,"x_min":0,"x_max":0,"o":"m 596 464 l 21 464 l 21 386 l 596 386 z "},"–":{"ha":475,"x_min":0,"x_max":0,"o":"m 454 464 l 21 464 l 21 386 l 454 386 z "},"-":{"ha":428,"x_min":0,"x_max":0,"o":"m 407 464 l 21 464 l 21 386 l 407 386 z "},"ı":{"ha":121,"x_min":0,"x_max":0,"o":"m 100 0 l 100 531 l 22 531 l 22 0 z "},"”":{"ha":460,"x_min":0,"x_max":0,"o":"m 247 860 l 300 596 l 378 596 l 431 860 z m 82 596 l 160 596 l 213 860 l 29 860 z "},"“":{"ha":460,"x_min":0,"x_max":0,"o":"m 213 596 l 160 860 l 82 860 l 29 596 z m 378 860 l 300 860 l 247 596 l 431 596 z "},"’":{"ha":240,"x_min":0,"x_max":0,"o":"m 160 596 l 213 860 l 29 860 l 82 596 z "},"‘":{"ha":240,"x_min":0,"x_max":0,"o":"m 82 860 l 29 596 l 213 596 l 160 860 z "},"‚":{"ha":226,"x_min":0,"x_max":0,"o":"m 153 -133 l 206 131 l 22 131 l 75 -133 z "},"„":{"ha":454,"x_min":0,"x_max":0,"o":"m 153 -133 l 206 131 l 22 131 l 75 -133 z m 379 -133 l 432 131 l 249 131 l 301 -133 z "},"™":{"ha":897,"x_min":0,"x_max":0,"o":"m 286 878 b 115 860 211 878 196 860 b 36 875 44 860 50 875 b 29 868 33 875 29 872 b 151 806 29 849 61 806 b 163 806 156 806 158 806 l 163 453 l 151 453 b 144 446 149 453 144 450 b 151 439 144 443 149 439 l 276 439 b 283 446 279 439 283 443 b 276 453 283 450 279 453 l 265 453 l 265 818 b 294 819 275 819 283 819 b 399 806 342 819 372 814 b 404 814 403 803 407 807 b 286 878 399 835 361 878 z m 861 453 l 851 453 l 851 838 l 861 838 b 868 844 865 838 868 840 b 861 851 868 849 865 851 l 738 851 b 731 844 733 851 731 849 b 738 838 731 840 733 838 l 740 838 l 633 622 b 438 851 613 715 581 846 l 428 851 b 428 835 417 851 418 835 b 436 833 431 835 433 835 l 436 453 l 426 453 b 419 446 422 453 419 450 b 426 439 419 443 422 439 l 493 439 b 500 446 497 439 500 443 b 493 453 500 450 497 453 l 483 453 l 483 771 b 657 510 518 676 538 510 b 679 531 690 510 693 531 b 647 574 664 531 654 547 l 747 775 l 747 453 l 738 453 b 731 446 733 453 731 450 b 738 439 731 443 733 439 l 861 439 b 868 446 865 439 868 443 b 861 453 868 450 865 453 z "}}}
